{"title":"Playing For Keeps 2012 BRRip 720p x264 AAC - PRiSTiNE [P2PDL]","uid":8176122,"size":648543909,"categoryP":"video","categoryS":"hd___movies","magnet":"?xt=urn:btih:0a7eebe58bf87d889317d77aa5d40336a9272a8c&amp;dn=Playing+For+Keeps+2012+BRRip+720p+x264+AAC+-+PRiSTiNE+%5BP2PDL%5D&amp;tr=udp%3A%2F%2Ftracker.openbittorrent.com%3A80&amp;tr=udp%3A%2F%2Fopen.demonii.com%3A1337&amp;tr=udp%3A%2F%2Ftracker.coppersurfer.tk%3A6969&amp;tr=udp%3A%2F%2Fexodus.desync.com%3A6969","seeders":0,"leechers":4,"uploader":"Vitamin_X","files":-1,"time":1361494359,"description":"_________________________  Visit us at _________________________\n  &lt;a href=&quot;\nhttp://p2pdl.com&quot; rel=&quot;nofollow&quot; target=&quot;_NEW&quot;&gt;\nhttp://p2pdl.com&lt;/a&gt;  ____________________________ &lt;a href=&quot; http://p2pdl.com&quot; rel=&quot;nofollow&quot; target=&quot;_NEW&quot;&gt; http://p2pdl.com&lt;/a&gt;\n\n &lt;a href=&quot;\nhttp://www.shotpix.com/images/00761229668282330879.jpg&quot; rel=&quot;nofollow&quot; target=&quot;_NEW&quot;&gt;\nhttp://www.shotpix.com/images/00761229668282330879.jpg&lt;/a&gt;\n\nPlaying For Keeps 2012 BRRip 720p x264 AAC - PRiSTiNE [P2PDL]\n\t\t\t\t\nGenre: Comedy | Romance\nA former sports star who's fallen on hard times starts\ncoaching his son's soccer team as a way to get his life together. \nHis attempts to become an adult are met with challenges from the \nattractive soccer moms who pursue him at every turn.\nDirector: Gabriele Muccino\nStars: Gerard Butler, Jessica Biel, Dennis Quaid\n\nInfo:  &lt;a href=&quot;\nhttp://www.imdb.com/title/tt1540128/&quot; rel=&quot;nofollow&quot; target=&quot;_NEW&quot;&gt;\nhttp://www.imdb.com/title/tt1540128/&lt;/a&gt;\n &lt;a href=&quot;\nhttp://www.rottentomatoes.com/m/playing_for_keeps_2012/&quot; rel=&quot;nofollow&quot; target=&quot;_NEW&quot;&gt;\nhttp://www.rottentomatoes.com/m/playing_for_keeps_2012/&lt;/a&gt;\n\n\n\nGeneral\nComplete name                  : Playing For Keeps 2012 BRRip 720p x264 AAC - PRiSTiNE [P2PDL].mp4\nFormat                         : MPEG-4\nFormat profile                 : Base Media / Version 2\nCodec ID                       : mp42\nFile size                      : 612 MiB\nDuration                       : 1h 45mn\nOverall bit rate mode          : Variable\nOverall bit rate               : 810 Kbps\n\nSource                         : 720p.BluRay.x264-SPARKS (Thanks)\n\nVideo\nFormat                         : AVC\nWidth                          : 1 280 pixels\nHeight                         : 536 pixels\nDisplay aspect ratio           : 2.40:1\nFrame rate mode                : Variable\nFrame rate                     : 23.976 fps\nColor space                    : YUV\nChroma subsampling             : 4:2:0\nBit depth                      : 8 bits\nScan type                      : Progressive\nBits/(Pixel*Frame)             : 0.044\nStream size                    : 548 MiB (89%)\nWriting library                : x264 core 129\n\nAudio\nFormat                         : AAC\nBit rate                       : 79.9 Kbps\nChannel(s)                     : 2 channels\nChannel positions              : Front: L R\nSampling rate                  : 48.0 KHz\nStream size                    : 60.4 MiB (10%)\nLanguage                       : English\n\nSubtitle                       : Yes ( English)\n\n\nScreens: &lt;a href=&quot;\nhttp://www.shotpix.com/images/61320292237127817810.jpg&quot; rel=&quot;nofollow&quot; target=&quot;_NEW&quot;&gt;\nhttp://www.shotpix.com/images/61320292237127817810.jpg&lt;/a&gt; &lt;a href=&quot;\nhttp://www.shotpix.com/images/74490840339949169861.jpg&quot; rel=&quot;nofollow&quot; target=&quot;_NEW&quot;&gt;\nhttp://www.shotpix.com/images/74490840339949169861.jpg&lt;/a&gt; &lt;a href=&quot;\nhttp://www.shotpix.com/images/12730888887723110334.jpg&quot; rel=&quot;nofollow&quot; target=&quot;_NEW&quot;&gt;\nhttp://www.shotpix.com/images/12730888887723110334.jpg&lt;/a&gt; &lt;a href=&quot;\nhttp://www.shotpix.com/images/59451714955653357921.jpg&quot; rel=&quot;nofollow&quot; target=&quot;_NEW&quot;&gt;\nhttp://www.shotpix.com/images/59451714955653357921.jpg&lt;/a&gt;\n\nThumbs: &lt;a href=&quot;\nhttp://www.shotpix.com/images/01111329623613340432.jpg&quot; rel=&quot;nofollow&quot; target=&quot;_NEW&quot;&gt;\nhttp://www.shotpix.com/images/01111329623613340432.jpg&lt;/a&gt;\n\n----------------------------------------------------------------------------------------------------\n\n\nRecommend to you to use latest version of VLC player. Install K-Lite Codec Pack or shark007 codecs\nin case of any kind of problem in playback (For non-VLC Media Player users). Alternatively, install\nCore AVC codecs, the fastest decoder that there is coupled with Community Center Codec Pack and play\non Windows Media Player Classic. Check sample to be sure.\nEnjoy!\n\nGreets to: VYTO, a2zRG, MusiK_KinG, Neon, Kuroyukihime, TorDigger, Ash968, StyLishSaLH and staff members at\nExtraTorrent, TPB, H33T, KAT, 1337x, PublicHD, Ahashare, BTScene, SilverTorrent, LimeTorrents, TorrentMafia,\nP2PDL, and all others.\n\nEncoder Notes: Looking For Early Access To Anything You Can Provide DVDScr, R5, DVDR, BluRay, Direct\nAudio, Early Music Releases, Seedboxes, Dedicated Servers anything u can provide, Advance / Promo CDs/\nDVDs. If You Got anything to offer contact me at &quot;&lt;a class=&quot;__cf_email__&quot; href=&quot;/cdn-cgi/l/email-protection&quot; data-cfemail=&quot;24545643644c51574c0a474b49&quot;&gt;[email&amp;#160;protected]&lt;/a&gt;&lt;script cf-hash='f9e31' type=&quot;text/javascript&quot;&gt;\n/* &lt;![CDATA[ */!function(){try{var t=&quot;currentScript&quot;in document?document.currentScript:function(){for(var t=document.getElementsByTagName(&quot;script&quot;),e=t.length;e--;)if(t[e].getAttribute(&quot;cf-hash&quot;))return t[e]}();if(t&amp;&amp;t.previousSibling){var e,r,n,i,c=t.previousSibling,a=c.getAttribute(&quot;data-cfemail&quot;);if(a){for(e=&quot;&quot;,r=parseInt(a.substr(0,2),16),n=2;a.length-n;n+=2)i=parseInt(a.substr(n,2),16)^r,e+=String.fromCharCode(i);e=document.createTextNode(e),c.parentNode.replaceChild(e,c)}}}catch(u){}}();/* ]]&gt; */&lt;/script&gt;&quot;.","torrent":{"xt":"urn:btih:0a7eebe58bf87d889317d77aa5d40336a9272a8c","amp;dn":"Playing+For+Keeps+2012+BRRip+720p+x264+AAC+-+PRiSTiNE+%5BP2PDL%5D","amp;tr":["udp%3A%2F%2Ftracker.openbittorrent.com%3A80","udp%3A%2F%2Fopen.demonii.com%3A1337","udp%3A%2F%2Ftracker.coppersurfer.tk%3A6969","udp%3A%2F%2Fexodus.desync.com%3A6969"],"infoHash":"0a7eebe58bf87d889317d77aa5d40336a9272a8c","infoHashBuffer":{"type":"Buffer","data":[10,126,235,229,139,248,125,136,147,23,215,122,165,212,3,54,169,39,42,140]},"announce":[],"urlList":[]}}